PathFileType	4	(X/Y/Z)	/Users/niels/Desktop/University/Third Semester/Perception and Action/Exam/Gymnastics Motion Tracking/Code for Gym Tracking/Analyzed Data/Webcam_Backflip/id11_2_trajectory_Sports2D/id11_2_trajectory_Sports2D_px_person00.trc
DataRate	CameraRate	NumFrames	NumMarkers	Units	OrigDataRate	OrigDataStartFrame	OrigNumFrames
29.714285714285715	29.714285714285715	8	22	m	29.714285714285715	65	105
Frame#	Time	Hip			RHip			RKnee			RAnkle			RBigToe			RSmallToe			RHeel			LHip			LKnee			LAnkle			LBigToe			LSmallToe			LHeel			Neck			Head			Nose			RShoulder			RElbow			RWrist			LShoulder			LElbow			LWrist		
		X1	Y1	Z1	X2	Y2	Z2	X3	Y3	Z3	X4	Y4	Z4	X5	Y5	Z5	X6	Y6	Z6	X7	Y7	Z7	X8	Y8	Z8	X9	Y9	Z9	X10	Y10	Z10	X11	Y11	Z11	X12	Y12	Z12	X13	Y13	Z13	X14	Y14	Z14	X15	Y15	Z15	X16	Y16	Z16	X17	Y17	Z17	X18	Y18	Z18	X19	Y19	Z19	X20	Y20	Z20	X21	Y21	Z21	X22	Y22	Z22
65	2.1875	0.9616783968488745	-0.5788336156172197	0.0	0.9503616765480828	-0.5765121457550639	0.0	0.956906133964169	-0.7968256645760537	0.0	0.9164831155508216	-0.9893620497552156	0.0	1.008381756327737	-1.0383483786691272	0.0	0.9842428620505097	-1.0435561302252871	0.0	0.8944781415216742	-1.0169511005526493	0.0	0.9695008674711171	-0.5762865136884728	0.0	0.9612332009097034	-0.7948955824026316	0.0	0.9253267034529293	-0.9761021190456773	0.0	1.0185156870904333	-1.023896798088353	0.0	1.0079363121245146	-1.0165029678133581	0.0	0.8975224840031121	-1.0020372551231072	0.0	0.9705169030211654	-0.2981694490600475	0.0	1.011883677119623	-0.18607183250119996	0.0	1.004368363066247	-0.2512642989749025	0.0	0.9388558364224363	-0.31415223392646435	0.0	0.9632934682767659	-0.18715730126619579	0.0	0.9567605128469432	-0.07190239125423242	0.0	0.985269175804525	-0.32903522576234107	0.0	0.9939282026043437	-0.19483493821948136	0.0	1.013664341455512	-0.09196056747522885	0.0
66	2.2211538461538463	0.9597904166226814	-0.578758940745483	0.0	0.9489578646396862	-0.5762626008989965	0.0	0.955539189711468	-0.797531085862725	0.0	0.9159630453739221	-0.9901298284496733	0.0	1.0073030369112894	-1.0383700551299078	0.0	0.9838711672688483	-1.0438537388019429	0.0	0.8944623420407551	-1.0177739295679809	0.0	0.9676815852916919	-0.5760554288917417	0.0	0.9595536984341095	-0.7954146734001358	0.0	0.9246661252294471	-0.9768028779392138	0.0	1.0171783918286041	-1.0230398904191613	0.0	1.006205095627813	-1.015844160332764	0.0	0.8966278069868598	-1.0020428687955982	0.0	0.9698318478531887	-0.2983156216920722	0.0	1.0128364354628951	-0.18838227762165144	0.0	1.0060749035427068	-0.25319389202404	0.0	0.9398273086675948	-0.3136061900396868	0.0	0.9676240004970341	-0.1876070749425984	0.0	0.9640848423912385	-0.0714023751923143	0.0	0.9834195020798372	-0.32871658828628325	0.0	0.9952244884868514	-0.1970542391035666	0.0	1.0161324331730035	-0.0922676117020963	0.0
67	2.254807692307692	0.9574880350727866	-0.5784625869529757	0.0	0.9473877145542927	-0.5756636665886835	0.0	0.9545394553155057	-0.7977410797002467	0.0	0.9157830413466523	-0.9906852896148999	0.0	1.0060973189894402	-1.03789092199354	0.0	0.9835757516260434	-1.0437213493883644	0.0	0.8947129257636028	-1.018399062996616	0.0	0.966187219010407	-0.5756455015270945	0.0	0.9580651760914192	-0.7953089891005111	0.0	0.9238112853318747	-0.9773289687578157	0.0	1.015547260829367	-1.0218342137891452	0.0	1.0040290077877176	-1.0150086565777934	0.0	0.8955868774246014	-1.002025695553537	0.0	0.9686842082164452	-0.2990142612834316	0.0	1.012844108060679	-0.19180473033405973	0.0	1.0075885533163187	-0.25572828169811707	0.0	0.9402529333229379	-0.3135572019920871	0.0	0.9744077628656522	-0.18935098630132138	0.0	0.9756194354901568	-0.0719194410736833	0.0	0.9814178717244292	-0.3290119907096599	0.0	0.9973738294538754	-0.2017594427441407	0.0	1.0200824922008218	-0.09477320685542906	0.0
68	2.2884615384615383	0.9547847278964324	-0.5776549658237117	0.0	0.9454293806355053	-0.5745321819560684	0.0	0.9533887920201064	-0.7973558488476605	0.0	0.9159111490620949	-0.9909949731044111	0.0	1.0047627101200893	-1.0367960726956407	0.0	0.9832592443593331	-1.0430399962290249	0.0	0.8952761703810951	-1.018766071246029	0.0	0.9652114090899093	-0.5748296795944852	0.0	0.9563728731025147	-0.7944354188702951	0.0	0.922683246723954	-0.9774499733989188	0.0	1.0132745921004578	-1.0200991035405742	0.0	1.000989607645465	-1.0137756151216766	0.0	0.8943309300776167	-1.0018496279835902	0.0	0.9670233716633346	-0.2997870928235951	0.0	1.0113425360706545	-0.19542492949935175	0.0	1.0084867436360183	-0.25812368608625325	0.0	0.939435900427615	-0.3138382544234066	0.0	0.9838424127339392	-0.1928351613711361	0.0	0.9913968300127012	-0.0740340945120539	0.0	0.9799506167714577	-0.32966138545404006	0.0	1.0008765454374227	-0.2093805347692209	0.0	1.0265988783309075	-0.10104913888566434	0.0
69	2.3221153846153846	0.9518028432531136	-0.5761804345739447	0.0	0.942841042021451	-0.5728512005257075	0.0	0.9516866694573715	-0.7963025834405706	0.0	0.9161628467590748	-0.9909816002111	0.0	1.0033222621004656	-1.0351759734978099	0.0	0.9827881583923401	-1.0418461358081126	0.0	0.8959681997047606	-1.0187758840042154	0.0	0.9647422055542675	-0.5735105622267089	0.0	0.9541596354316018	-0.7928042828987947	0.0	0.921335497582264	-0.9769164952000491	0.0	1.0102114125110622	-1.0177876215344237	0.0	0.9970365994844353	-1.0120641666018915	0.0	0.8928297999701468	-1.0013546494330188	0.0	0.9647673078385116	-0.30022154149969893	0.0	1.0081468685581971	-0.19810059640405298	0.0	1.0083296796636756	-0.25962812222944537	0.0	0.936664801246	-0.3142795214343945	0.0	0.9953331174259227	-0.19880563054756445	0.0	1.0105749773218906	-0.07850400878913259	0.0	0.9795008300803745	-0.3303938280397312	0.0	1.0061028954824465	-0.2203002828400802	0.0	1.0367558721099375	-0.1124985787902878	0.0
70	2.355769230769231	0.9487269876222055	-0.5741231623716728	0.0	0.9394962923972173	-0.5708895529979597	0.0	0.94922051310577	-0.7945362244488127	0.0	0.9162863723121476	-0.9905589228006244	0.0	1.0018739594223995	-1.0332827241670688	0.0	0.9820619273057383	-1.0403118732205614	0.0	0.8964249024323129	-1.0183114736149044	0.0	0.9643463047978882	-0.571849063117157	0.0	0.9514360223152438	-0.790482054062814	0.0	0.919956564710856	-0.975503343836638	0.0	1.006529536455155	-1.0149388037514804	0.0	0.9926984072279214	-1.0098520551404506	0.0	0.8911886694354705	-1.0003767142615216	0.0	0.961976616658828	-0.29999954629791076	0.0	1.0040479352134526	-0.19871833001205427	0.0	1.0070829933795822	-0.2597111990860115	0.0	0.9317627980484402	-0.314639301192252	0.0	1.0073538642670912	-0.20787070137370725	0.0	1.0318829089205273	-0.08643863499186659	0.0	0.979839973582167	-0.33087440492919035	0.0	1.013149881041172	-0.23433515658612242	0.0	1.0512164007321463	-0.12961388060056944	0.0
71	2.3894230769230766	0.9457106141170205	-0.5718416816182482	0.0	0.9355085676200752	-0.5691688831044356	0.0	0.945942411693037	-0.7921916915399526	0.0	0.9160867534681741	-0.9898086391794417	0.0	1.000589310977622	-1.0313275897300904	0.0	0.981087016595936	-1.0386497363958669	0.0	0.8963877569576059	-1.0174178517437833	0.0	0.9632700744665214	-0.5702934140823107	0.0	0.9485886130268549	-0.7876024097327193	0.0	0.9188027262004481	-0.9731139363920875	0.0	1.002623529275283	-1.011497238021446	0.0	0.9888464352624533	-1.00698080835058	0.0	0.8896690241119528	-0.9987562684459094	0.0	0.9589658109999132	-0.2989939726286939	0.0	1.000682943260711	-0.19682001877764835	0.0	1.0054544834674382	-0.25844883127467067	0.0	0.9255092353922288	-0.3146651674057583	0.0	1.0180070169440925	-0.22010251789693286	0.0	1.054225104860573	-0.09936566481978347	0.0	0.9800514832614705	-0.330754451678826	0.0	1.0219131123879053	-0.250435765940837	0.0	1.0695898610190584	-0.15165505228332457	0.0
72	2.423076923076923	0.9427446998862978	-0.5698810560003192	0.0	0.9311835032106589	-0.5682589592375668	0.0	0.9419508486534999	-0.7896113344136853	0.0	0.9154700081584802	-0.9889897982648413	0.0	0.9996498762987828	-1.0294014452064946	0.0	0.9800115560542748	-1.0370546531215288	0.0	0.8958772543946648	-1.0163397213542267	0.0	0.9608391738725626	-0.5694732723896622	0.0	0.9460202028340727	-0.7844353926409949	0.0	0.9180305555629878	-0.9698688349556902	0.0	0.9988100881191834	-1.0073741633058118	0.0	0.9860376575042397	-1.0032314407714986	0.0	0.8885197979636945	-0.9964027657505005	0.0	0.9560734510280807	-0.297529541127813	0.0	0.9992403450758304	-0.1932509304956462	0.0	1.0043687815494853	-0.2567004887282703	0.0	0.9193192519234199	-0.3144896434318528	0.0	1.0258687205459744	-0.23547443878525293	0.0	1.0768538902302822	-0.11908876352054851	0.0	0.9792758593759929	-0.32998948111640086	0.0	1.0320846795417054	-0.26743896227709507	0.0	1.0903478899499333	-0.1772751891612987	0.0
